<svg width="392" height="225" viewBox="0 0 392 225" fill="none" xmlns="http://www.w3.org/2000/svg">
<path d="M99.1683 0.897858L99.1602 0.899139C38.4546 10.5961 -2.27188 58.1258 0.647383 115.98L0.647434 115.981C2.57335 155.828 21.6613 187.645 49.9061 206.221C78.1522 224.797 115.59 230.152 154.254 216.999C166.2 212.884 178.279 206.246 187.964 198.286L187.968 198.282L195.435 192.282L195.765 192.017L196.081 192.299L203.413 198.831C212.55 206.908 230.747 216.609 244.553 220.592C253.816 223.238 258.025 223.639 277.748 223.639C297.342 223.639 301.813 223.237 310.672 220.593L310.677 220.591C330.587 214.884 346.91 204.8 361.519 189.528C376.119 174.131 385.01 156.882 389.392 135.77L389.392 135.769C391.047 127.893 391.547 117.239 391.032 106.68C390.516 96.1197 388.987 85.7009 386.605 78.2917L387.081 78.1387L386.605 78.2916C377.313 49.3517 357.937 26.6593 330.859 13.2535L330.859 13.2532C320.933 8.32358 314.346 5.51404 306.91 3.92773C299.467 2.33984 291.148 1.97206 277.748 1.97206C258.155 1.97206 253.683 2.37325 244.689 5.01842L244.687 5.01909C208.845 15.3733 181.635 41.3867 169.287 76.9687C167.153 83.1728 166.07 86.4264 165.511 90.8843C164.949 95.3626 164.915 101.059 164.915 112.139C164.915 132.133 165.316 135.934 167.959 144.39L167.962 144.4C168.725 146.823 169.303 148.656 169.695 150.092C170.087 151.528 170.304 152.604 170.331 153.507C170.386 155.359 169.627 156.422 168.338 158.226L168.29 158.294C168.29 158.294 168.289 158.294 168.289 158.295C163.434 165.172 153.365 173.358 145.029 177.257C133.745 182.63 124.195 184.375 109.86 183.705C104.656 183.505 101.248 183.204 98.1317 182.458C95.0112 181.712 92.2053 180.526 88.1983 178.59C68.435 169.178 54.0838 149.433 49.1246 124.905L49.1243 124.903C41.213 85.2124 62.1339 49.5846 98.4404 41.6505C104.371 40.3031 112.157 40.0046 119.603 40.5735C127.042 41.1419 134.209 42.5811 138.888 44.7501C140.688 45.5499 142.051 46.1447 143.101 46.5542C144.16 46.9677 144.856 47.1742 145.334 47.2249C145.783 47.2725 145.962 47.1767 146.086 47.0498C146.258 46.8735 146.402 46.5593 146.607 45.9811C146.929 44.951 147.806 43.2503 149.006 41.1988C150.219 39.1252 151.787 36.6498 153.516 34.0611C156.971 28.8858 161.083 23.236 164.299 19.4166L164.303 19.4115L169.871 12.9778L161.939 9.25952C161.939 9.2594 161.938 9.25929 161.938 9.25917C148.413 3.02695 139.283 1.03746 120.404 0.638641L120.401 0.638535C115.674 0.505386 110.914 0.472122 107.054 0.522018C103.175 0.572189 100.253 0.706329 99.1683 0.897858ZM291.305 41.7802L291.306 41.7804C309.464 45.1431 326.927 58.4451 335.395 75.381C350.143 104.743 346.008 142.441 325.714 164.213L325.711 164.216C313.496 177.102 300.716 183.427 283.121 184.771C240.902 188.265 208.968 153.693 211.649 107.576L211.649 107.576C212.989 85.0539 222.244 66.6519 236.513 54.8534C250.784 43.0531 270.036 37.8888 291.305 41.7802Z" fill="#BF3838" stroke="black"/>
</svg>
